<svg xmlns="http://www.w3.org/2000/svg" viewBox="0 12.069999694824219 139.74000549316406 36.369998931884766" data-asc="0.96875" width="139.74000549316406" height="36.369998931884766"><defs/><g><g fill="#ffffff"><g transform="translate(0, 0)"><path d="M0 48.44L0 12.07L7.69 12.07L7.69 27.08L23.30 27.08L23.30 12.07L30.97 12.07L30.97 48.44L23.30 48.44L23.30 33.42L7.69 33.42L7.69 48.44L0 48.44ZM35.92 18.41L35.92 12.07L65.78 12.07L65.78 18.41L54.65 18.41L54.65 48.44L47.05 48.44L47.05 18.41L35.92 18.41ZM70.72 12.07L80.20 12.07L90.22 36.51L90.64 36.51L100.66 12.07L110.14 12.07L110.14 48.44L102.68 48.44L102.68 24.77L102.38 24.77L92.97 48.26L87.89 48.26L78.48 24.68L78.18 24.68L78.18 48.44L70.72 48.44L70.72 12.07ZM116.46 48.44L116.46 12.07L124.15 12.07L124.15 42.10L139.74 42.10L139.74 48.44L116.46 48.44Z"/></g></g></g></svg>