<svg xmlns="http://www.w3.org/2000/svg" viewBox="0.019746899604797363 10 260.44024658203125 48.65999984741211" data-asc="0.96875" width="260.44024658203125" height="48.65999984741211"><defs/><g><g fill="#ffffff"><g transform="translate(0, 0)"><path d="M16.57 12.07L24.17 12.07L24.17 37.43Q24.17 40.94 22.59 43.54Q21.02 46.13 18.24 47.53Q15.45 48.93 11.75 48.93Q8.47 48.93 5.80 47.77Q3.13 46.61 1.56 44.22Q0 41.83 0.02 38.21L7.67 38.21Q7.71 39.65 8.27 40.67Q8.82 41.69 9.81 42.23Q10.80 42.77 12.14 42.77Q13.57 42.77 14.55 42.16Q15.54 41.55 16.05 40.36Q16.57 39.17 16.57 37.43L16.57 12.07ZM38.14 48.95Q35.53 48.95 33.49 48.04Q31.45 47.12 30.26 45.32Q29.08 43.52 29.08 40.82Q29.08 38.55 29.92 37.00Q30.75 35.46 32.19 34.52Q33.63 33.58 35.47 33.10Q37.30 32.62 39.33 32.42Q41.71 32.17 43.16 31.95Q44.62 31.73 45.28 31.29Q45.93 30.84 45.93 29.97L45.93 29.87Q45.93 28.18 44.88 27.25Q43.82 26.33 41.89 26.33Q39.84 26.33 38.64 27.23Q37.43 28.12 37.04 29.47L30.04 28.91Q30.58 26.42 32.14 24.60Q33.70 22.78 36.18 21.80Q38.65 20.81 41.92 20.81Q44.19 20.81 46.28 21.34Q48.37 21.87 49.99 22.99Q51.62 24.11 52.56 25.86Q53.50 27.61 53.50 30.04L53.50 48.44L46.32 48.44L46.32 44.66L46.11 44.66Q45.45 45.93 44.35 46.90Q43.25 47.87 41.71 48.41Q40.16 48.95 38.14 48.95M40.31 43.73Q41.97 43.73 43.25 43.07Q44.53 42.40 45.26 41.26Q45.99 40.13 45.99 38.69L45.99 35.80Q45.63 36.03 45.02 36.21Q44.41 36.40 43.64 36.55Q42.88 36.70 42.12 36.82Q41.35 36.93 40.73 37.02Q39.40 37.22 38.41 37.64Q37.41 38.07 36.86 38.79Q36.31 39.51 36.31 40.57Q36.31 42.12 37.44 42.92Q38.57 43.73 40.31 43.73ZM84.80 21.16L75.27 48.44L66.74 48.44L57.21 21.16L65.20 21.16L70.86 40.68L71.15 40.68L76.79 21.16L84.80 21.16ZM96.45 48.95Q93.84 48.95 91.80 48.04Q89.75 47.12 88.57 45.32Q87.39 43.52 87.39 40.82Q87.39 38.55 88.23 37.00Q89.06 35.46 90.50 34.52Q91.94 33.58 93.78 33.10Q95.61 32.62 97.64 32.42Q100.02 32.17 101.47 31.95Q102.93 31.73 103.59 31.29Q104.24 30.84 104.24 29.97L104.24 29.87Q104.24 28.18 103.19 27.25Q102.13 26.33 100.20 26.33Q98.15 26.33 96.95 27.23Q95.74 28.12 95.35 29.47L88.35 28.91Q88.88 26.42 90.45 24.60Q92.01 22.78 94.49 21.80Q96.96 20.81 100.23 20.81Q102.50 20.81 104.59 21.34Q106.68 21.87 108.30 22.99Q109.93 24.11 110.87 25.86Q111.81 27.61 111.81 30.04L111.81 48.44L104.63 48.44L104.63 44.66L104.42 44.66Q103.76 45.93 102.66 46.90Q101.56 47.87 100.02 48.41Q98.47 48.95 96.45 48.95M98.62 43.73Q100.28 43.73 101.56 43.07Q102.84 42.40 103.57 41.26Q104.30 40.13 104.30 38.69L104.30 35.80Q103.94 36.03 103.33 36.21Q102.72 36.40 101.95 36.55Q101.19 36.70 100.43 36.82Q99.66 36.93 99.04 37.02Q97.71 37.22 96.72 37.64Q95.72 38.07 95.17 38.79Q94.62 39.51 94.62 40.57Q94.62 42.12 95.75 42.92Q96.88 43.73 98.62 43.73ZM137.55 22.53Q137.34 20.38 135.72 19.19Q134.11 18.00 131.34 18.00Q129.46 18.00 128.16 18.53Q126.86 19.05 126.18 19.98Q125.50 20.90 125.50 22.07Q125.46 23.05 125.91 23.77Q126.37 24.50 127.17 25.03Q127.97 25.55 129.01 25.93Q130.06 26.31 131.25 26.58L134.52 27.36Q136.90 27.89 138.88 28.78Q140.87 29.67 142.33 30.97Q143.79 32.26 144.59 34.02Q145.40 35.78 145.42 38.05Q145.40 41.39 143.72 43.83Q142.05 46.27 138.89 47.61Q135.74 48.95 131.30 48.95Q126.90 48.95 123.64 47.60Q120.38 46.25 118.56 43.60Q116.74 40.94 116.65 37.02L124.09 37.02Q124.22 38.85 125.15 40.07Q126.08 41.28 127.65 41.89Q129.23 42.51 131.21 42.51Q133.17 42.51 134.61 41.94Q136.06 41.37 136.86 40.36Q137.66 39.35 137.66 38.03Q137.66 36.81 136.94 35.97Q136.22 35.14 134.85 34.55Q133.47 33.97 131.48 33.49L127.52 32.49Q122.92 31.37 120.26 29.00Q117.60 26.62 117.61 22.59Q117.60 19.28 119.38 16.81Q121.16 14.35 124.29 12.96Q127.41 11.58 131.39 11.58Q135.44 11.58 138.47 12.96Q141.50 14.35 143.18 16.81Q144.87 19.28 144.92 22.53L137.55 22.53ZM162.75 48.97Q158.56 48.97 155.55 47.19Q152.54 45.40 150.93 42.22Q149.33 39.04 149.33 34.91Q149.33 30.72 150.95 27.55Q152.57 24.38 155.58 22.59Q158.58 20.81 162.71 20.81Q166.28 20.81 168.96 22.11Q171.64 23.40 173.21 25.75Q174.77 28.09 174.93 31.25L167.79 31.25Q167.49 29.21 166.20 27.96Q164.91 26.70 162.84 26.70Q161.08 26.70 159.77 27.65Q158.47 28.60 157.74 30.42Q157.01 32.23 157.01 34.80Q157.01 37.41 157.73 39.24Q158.45 41.07 159.77 42.03Q161.08 42.99 162.84 42.99Q164.13 42.99 165.17 42.45Q166.21 41.92 166.89 40.90Q167.58 39.88 167.79 38.44L174.93 38.44Q174.75 41.57 173.23 43.94Q171.72 46.31 169.05 47.64Q166.39 48.97 162.75 48.97ZM179.79 48.44L179.79 21.16L187.13 21.16L187.13 25.92L187.41 25.92Q188.16 23.38 189.91 22.08Q191.67 20.77 193.96 20.77Q194.53 20.77 195.19 20.85Q195.85 20.92 196.34 21.04L196.34 27.75Q195.81 27.59 194.87 27.47Q193.93 27.34 193.15 27.34Q191.48 27.34 190.17 28.06Q188.87 28.78 188.11 30.06Q187.36 31.34 187.36 33.01L187.36 48.44L179.79 48.44ZM200.23 48.44L200.23 21.16L207.79 21.16L207.79 48.44L200.23 48.44M204.03 17.65Q202.34 17.65 201.15 16.52Q199.95 15.39 199.95 13.81Q199.95 12.25 201.15 11.12Q202.34 10.00 204.03 10.00Q205.72 10.00 206.92 11.12Q208.11 12.25 208.11 13.81Q208.11 15.39 206.92 16.52Q205.72 17.65 204.03 17.65ZM213.83 58.66L213.83 21.16L221.29 21.16L221.29 25.75L221.63 25.75Q222.12 24.64 223.07 23.50Q224.02 22.35 225.56 21.58Q227.10 20.81 229.39 20.81Q232.37 20.81 234.89 22.36Q237.41 23.92 238.92 27.03Q240.43 30.15 240.43 34.84Q240.43 39.40 238.96 42.53Q237.50 45.67 234.99 47.27Q232.48 48.88 229.37 48.88Q227.17 48.88 225.63 48.15Q224.09 47.43 223.12 46.32Q222.14 45.21 221.63 44.07L221.40 44.07L221.40 58.66L213.83 58.66M221.24 34.80Q221.24 37.23 221.91 39.04Q222.59 40.86 223.86 41.86Q225.14 42.86 226.97 42.86Q228.82 42.86 230.10 41.84Q231.37 40.82 232.04 39.00Q232.71 37.18 232.71 34.80Q232.71 32.44 232.05 30.65Q231.39 28.85 230.11 27.84Q228.84 26.83 226.97 26.83Q225.12 26.83 223.85 27.81Q222.59 28.78 221.91 30.58Q221.24 32.37 221.24 34.80ZM259.96 21.16L259.96 26.85L243.54 26.85L243.54 21.16L259.96 21.16M247.27 14.63L254.83 14.63L254.83 40.06Q254.83 41.10 255.15 41.68Q255.47 42.26 256.05 42.49Q256.62 42.72 257.39 42.72Q257.92 42.72 258.45 42.62Q258.98 42.52 259.27 42.47L260.46 48.10Q259.89 48.28 258.86 48.52Q257.83 48.76 256.36 48.81Q253.62 48.92 251.57 48.08Q249.52 47.25 248.38 45.49Q247.25 43.73 247.27 41.05L247.27 14.63Z"/></g></g></g></svg>